{"title":"Quirke S01E02 x264 RB58.mp4","uid":9660502,"size":971989468,"categoryP":"video","categoryS":"tv_shows","magnet":"?xt=urn:btih:bc2ddf08c98875885e64b9475df9d7c6b3b736b6&amp;dn=Quirke+S01E02+x264+RB58.mp4&amp;tr=udp%3A%2F%2Ftracker.openbittorrent.com%3A80&amp;tr=udp%3A%2F%2Fopen.demonii.com%3A1337&amp;tr=udp%3A%2F%2Ftracker.coppersurfer.tk%3A6969&amp;tr=udp%3A%2F%2Fexodus.desync.com%3A6969","seeders":3,"leechers":0,"uploader":"RedBaron58","files":1,"time":1393269296,"description":"Quirke Series 1 Episode 2 x264 Silver Swan\nJoint BBC and RTE production Released on RTE One 23rd Febuary 2014\n\nSorry No HD someone RTE / BBC stopped that.\n\n\nPlease be patient My upload speed is limited, but I am online most the time and during the night.\nThank you for your kind comments and thumbs ups on my other torrents, your feedback is welcome.\n &lt;a href=&quot;\nhttp://www.imdb.com/title/tt2357908/&quot; rel=&quot;nofollow&quot; target=&quot;_NEW&quot;&gt;\nhttp://www.imdb.com/title/tt2357908/&lt;/a&gt;\n\nAbout the Episode:\n\nIt is early 1957 and the Griffin family has been blown apart since the revelation in Boston that \nQuirke is Phoebe's natural father. Quirke is drinking heavily; Mal and Sarah's marriage is on the \nrocks; Sarah is regretting the missed chances of twenty years before; Quirke and his adoptive \nfather the formidable Judge Garret Griffin are estranged; and Phoebe has decided to assert her \nfreedom from the lot of them by moving out of the family home.\n\nNothing anyone can say can dissuade her, and Quirke resolves to look out for her as best he can. \nBut Phoebe pushes Quirke and the family away, defiantly taking up with a louche and dangerous \nyoung man by the name of Leslie White. \n\n\nI hope you enjoy.\n\n\nTechnical:\n\nGeneral\nComplete name                            : E:Quirke S01E02 x264 RB58.mp4\nFormat                                   : MPEG-4\nFormat profile                           : Base Media\nCodec ID                                 : isom\nFile size                                : 927 MiB\nDuration                                 : 1h 28mn\nOverall bit rate mode                    : Variable\nOverall bit rate                         : 1 460 Kbps\nWriting application                      : Lavf54.29.104\n\nVideo\nID                                       : 1\nFormat                                   : AVC\nFormat/Info                              : Advanced Video Codec\nFormat profile                           : &lt;a class=&quot;__cf_email__&quot; href=&quot;/cdn-cgi/l/email-protection&quot; data-cfemail=&quot;e1ac80888fa1add2cfd1&quot;&gt;[email&amp;#160;protected]&lt;/a&gt;&lt;script cf-hash='f9e31' type=&quot;text/javascript&quot;&gt;\n/* &lt;![CDATA[ */!function(){try{var t=&quot;currentScript&quot;in document?document.currentScript:function(){for(var t=document.getElementsByTagName(&quot;script&quot;),e=t.length;e--;)if(t[e].getAttribute(&quot;cf-hash&quot;))return t[e]}();if(t&amp;&amp;t.previousSibling){var e,r,n,i,c=t.previousSibling,a=c.getAttribute(&quot;data-cfemail&quot;);if(a){for(e=&quot;&quot;,r=parseInt(a.substr(0,2),16),n=2;a.length-n;n+=2)i=parseInt(a.substr(n,2),16)^r,e+=String.fromCharCode(i);e=document.createTextNode(e),c.parentNode.replaceChild(e,c)}}}catch(u){}}();/* ]]&gt; */&lt;/script&gt;\nFormat settings, CABAC                   : Yes\nFormat settings, ReFrames                : 4 frames\nCodec ID                                 : avc1\nCodec ID/Info                            : Advanced Video Coding\nDuration                                 : 1h 28mn\nBit rate                                 : 1 300 Kbps\nWidth                                    : 634 pixels\nHeight                                   : 360 pixels\nDisplay aspect ratio                     : 16:9\nFrame rate mode                          : Variable\nFrame rate                               : 25.000 fps\nMinimum frame rate                       : 13.594 fps\nMaximum frame rate                       : 25.381 fps\nColor space                              : YUV\nChroma subsampling                       : 4:2:0\nBit depth                                : 8 bits\nScan type                                : Progressive\nBits/(Pixel*Frame)                       : 0.228\nStream size                              : 826 MiB (89%)\nWriting library                          : x264 core 120\nEncoding settings                        : cabac=1 / ref=1 / deblock=1:0:0 / analyse=0x1:0x111 / me=hex / subme=2 / psy=1 / psy_rd=1.00:0.00 / mixed_ref=0 / me_range=16 / chroma_me=1 / trellis=0 / 8x8dct=0 / cqm=0 / deadzone=21,11 / fast_pskip=1 / chroma_qp_offset=0 / threads=3 / sliced_threads=0 / nr=0 / decimate=1 / interlaced=0 / bluray_compat=0 / constrained_intra=0 / bframes=3 / b_pyramid=2 / b_adapt=1 / b_bias=0 / direct=1 / weightb=1 / open_gop=0 / weightp=1 / keyint=250 / keyint_min=25 / scenecut=40 / intra_refresh=0 / rc_lookahead=10 / rc=2pass / mbtree=1 / bitrate=1300 / ratetol=1.0 / qcomp=0.60 / qpmin=3 / qpmax=69 / qpstep=4 / cplxblur=20.0 / qblur=0.5 / ip_ratio=1.40 / aq=1:1.00\nColor primaries                          : BT.601 NTSC\nTransfer characteristics                 : BT.709\nMatrix coefficients                      : BT.601\n\nAudio\nID                                       : 2\nFormat                                   : MPEG Audio\nFormat version                           : Version 1\nFormat profile                           : Layer 3\nCodec ID                                 : 6B\nDuration                                 : 1h 28mn\nBit rate mode                            : Variable\nBit rate                                 : 151 Kbps\nChannel(s)                               : 2 channels\nSampling rate                            : 44.1 KHz\nCompression mode                         : Lossy\nStream size                              : 95.6 MiB (10%)","torrent":{"xt":"urn:btih:bc2ddf08c98875885e64b9475df9d7c6b3b736b6","amp;dn":"Quirke+S01E02+x264+RB58.mp4","amp;tr":["udp%3A%2F%2Ftracker.openbittorrent.com%3A80","udp%3A%2F%2Fopen.demonii.com%3A1337","udp%3A%2F%2Ftracker.coppersurfer.tk%3A6969","udp%3A%2F%2Fexodus.desync.com%3A6969"],"infoHash":"bc2ddf08c98875885e64b9475df9d7c6b3b736b6","infoHashBuffer":{"type":"Buffer","data":[188,45,223,8,201,136,117,136,94,100,185,71,93,249,215,198,179,183,54,182]},"announce":[],"urlList":[]}}